<?xml version="1.0" encoding="iso-8859-1"?>
<!-- Generator: Adobe Illustrator 19.0.0, SVG Export Plug-In . SVG Version: 6.00 Build 0)  -->
<svg version="1.1" id="Capa_1" xmlns="http://www.w3.org/2000/svg" xmlns:xlink="http://www.w3.org/1999/xlink" x="0px" y="0px"
	 viewBox="0 0 468.288 468.288" style="enable-background:new 0 0 468.288 468.288;" xml:space="preserve">
<path style="fill:#74C6FF;" d="M81.92,330.08c-6.846-11.457-12.4-23.638-16.56-36.32C33.456,197.31,85.782,93.259,182.231,61.356
	c49.461-16.361,103.54-10.981,148.808,14.804c15.847,8.926,30.25,20.2,42.72,33.44c9.291,9.849,17.473,20.687,24.4,32.32
	c10.18,17.013,17.504,35.579,21.68,54.96c3.626,16.457,4.919,33.343,3.84,50.16c-6.066,101.408-93.191,178.698-194.6,172.632
	c-17.921-1.072-35.588-4.762-52.44-10.952"/>
<path style="fill:#0C6BC3;" d="M423.68,247.04c-1.289,21.482-6.325,42.573-14.88,62.32c-99.171-25.938-204.652,2.863-276.88,75.6
	c-17.367-12.629-32.394-28.197-44.4-46C175.466,251.085,303.256,216.142,423.68,247.04L423.68,247.04z"/>
<path style="fill:#168DE2;" d="M145.92,77.92c56.873-33.932,127.612-34.605,185.12-1.76c-88.13,0.724-174.558,24.35-250.8,68.56
	C95.965,117.131,118.601,94.11,145.92,77.92L145.92,77.92z"/>
<path style="fill:#74C6FF;" d="M373.76,109.6c-12.48-0.96-25.04-1.6-37.76-1.6c-98.591-0.078-194.786,30.384-275.36,87.2
	c3.997-17.705,10.602-34.717,19.6-50.48c76.242-44.21,162.67-67.836,250.8-68.56C346.887,85.086,361.29,96.36,373.76,109.6z"/>
<path style="fill:#003170;" d="M398.16,141.92c10.18,17.013,17.504,35.579,21.68,54.96c-126.882-27.212-259.075,8.917-354.48,96.88
	c-10.596-31.796-12.229-65.897-4.72-98.56C141.214,138.384,237.409,107.922,336,108c12.72,0,25.28,0.64,37.76,1.6
	C383.051,119.449,391.233,130.287,398.16,141.92L398.16,141.92z"/>
<g>
	<path style="fill:#168DE2;" d="M419.84,196.88c3.626,16.457,4.919,33.343,3.84,50.16c-120.424-30.898-248.214,4.045-336.16,91.92
		c-1.92-2.88-3.84-5.84-5.6-8.88c-6.846-11.457-12.4-23.638-16.56-36.32C160.765,205.797,292.958,169.668,419.84,196.88z"/>
	<path style="fill:#168DE2;" d="M408.8,309.36c-6.746,15.541-15.603,30.078-26.32,43.2c-73.623-14.578-149.822,6.211-205.84,56.16
		h-0.08c-15.902-5.83-30.923-13.826-44.64-23.76C204.148,312.223,309.629,283.422,408.8,309.36z"/>
</g>
<path style="fill:#74C6FF;" d="M336,348c15.605,0.008,31.171,1.535,46.48,4.56c-49.68,60.602-132.266,83.134-205.84,56.16
	C220.472,369.55,277.216,347.929,336,348z"/>
<path style="fill:#D95354;" d="M40,116H24V92c0-13.255-10.745-24-24-24V52c13.255,0,24-10.745,24-24V4h16v24
	c0,13.255,10.745,24,24,24v16c-13.255,0-24,10.745-24,24V116z M24,60c3.027,2.28,5.72,4.973,8,8c2.28-3.027,4.973-5.72,8-8
	c-3.027-2.28-5.72-4.973-8-8C29.72,55.027,27.027,57.72,24,60z"/>
<path style="fill:#03AA6F;" d="M456.976,464.288c-9.499-9.074-24.453-9.074-33.952,0l-11.312-11.312
	c9.376-9.37,9.38-24.566,0.011-33.941c-0.004-0.004-0.007-0.007-0.011-0.011l11.312-11.312c9.499,9.074,24.453,9.074,33.952,0
	l11.312,11.312c-9.376,9.37-9.38,24.566-0.011,33.941c0.004,0.004,0.007,0.007,0.011,0.011L456.976,464.288z M440,441.272
	c1.898,0.001,3.793,0.135,5.672,0.4c-0.528-3.763-0.528-7.581,0-11.344c-3.762,0.536-7.582,0.536-11.344,0
	c0.528,3.763,0.528,7.581,0,11.344C436.207,441.407,438.102,441.273,440,441.272z"/>
<circle style="fill:#86DAF1;" cx="448" cy="52" r="8"/>
<g>
</g>
<g>
</g>
<g>
</g>
<g>
</g>
<g>
</g>
<g>
</g>
<g>
</g>
<g>
</g>
<g>
</g>
<g>
</g>
<g>
</g>
<g>
</g>
<g>
</g>
<g>
</g>
<g>
</g>
</svg>
